PathFileType	4	(X/Y/Z)	C:\Documents and Settings\user\My Documents\MotionFiles\BioEngCompLab_Data\Delaware\Subject 2\Static1_smoothed.trc
DataRate	CameraRate	NumFrames	NumMarkers	Units	OrigDataRate	OrigDataStartFrame	OrigNumFrames
60.00	60.00	       4	49	mm	60.00	226	       300
Frame#	Time	R.ASIS			L.ASIS			V.Sacral			R.Thigh.Upper			R.Thigh.Front			R.Thigh.Rear			L.Thigh.Upper			L.Thigh.Front			L.Thigh.Rear			R.Knee.Lat			R.Knee.Med			L.Knee.Lat			L.Knee.Med			R.Shank.Upper			R.Shank.Front			R.Shank.Rear			L.Shank.Upper			L.Shank.Front			L.Shank.Rear			R.Ankle.Lat			R.Ankle.Med			L.Ankle.Lat			L.Ankle.Med			R.Heel			R.Midfoot.Sup			R.Midfoot.Lat			R.Toe.Tip			L.Heel			L.Midfoot.Sup			L.Midfoot.Lat			L.Toe.Tip			Sternum			R.Acromium			L.Acromium			R.Bicep			L.Bicep			R.Elbow			L.Elbow			R.Wrist.Med			R.Wrist.Lat			L.Wrist.Med			L.Wrist.Lat			R.Toe.Lat			R.Toe.Med			L.Toe.Lat			L.Toe.Med			R.Temple			L.Temple			Top.Head			
		X1	Y1	Z1	X2	Y2	Z2	X3	Y3	Z3	X4	Y4	Z4	X5	Y5	Z5	X6	Y6	Z6	X7	Y7	Z7	X8	Y8	Z8	X9	Y9	Z9	X10	Y10	Z10	X11	Y11	Z11	X12	Y12	Z12	X13	Y13	Z13	X14	Y14	Z14	X15	Y15	Z15	X16	Y16	Z16	X17	Y17	Z17	X18	Y18	Z18	X19	Y19	Z19	X20	Y20	Z20	X21	Y21	Z21	X22	Y22	Z22	X23	Y23	Z23	X24	Y24	Z24	X25	Y25	Z25	X26	Y26	Z26	X27	Y27	Z27	X28	Y28	Z28	X29	Y29	Z29	X30	Y30	Z30	X31	Y31	Z31	X32	Y32	Z32	X33	Y33	Z33	X34	Y34	Z34	X35	Y35	Z35	X36	Y36	Z36	X37	Y37	Z37	X38	Y38	Z38	X39	Y39	Z39	X40	Y40	Z40	X41	Y41	Z41	X42	Y42	Z42	X43	Y43	Z43	X44	Y44	Z44	X45	Y45	Z45	X46	Y46	Z46	X47	Y47	Z47	X48	Y48	Z48	X49	Y49	Z49	

226	3.750000	623.133000	1070.229860	166.433840	613.855220	1062.616090	-86.263380	419.321140	1064.942750	37.134560	545.616820	762.049320	220.612060	610.401180	697.611570	159.991120	511.751590	666.912780	216.238600	552.449100	764.312680	-145.625090	613.485290	690.420470	-74.445400	530.302800	634.458800	-133.499600	490.819460	543.781490	200.375950	497.901890	526.881160	73.111380	485.889340	548.211610	-118.340590	515.848510	524.892520	-2.182000	482.666050	461.349460	211.326980	531.654790	389.844090	166.976760	469.517360	379.000700	220.348250	462.073270	451.260800	-136.905410	526.140690	371.280580	-99.747040	438.510710	382.940460	-142.223570	431.757810	104.339990	205.571290	451.161530	115.057950	122.106580	420.406950	103.883880	-125.567110	445.181270	109.332080	-37.031930	366.331360	75.420920	161.923860	509.836180	71.922960	129.392430	479.484740	64.757460	228.489620	647.459900	64.294160	166.567020	352.776460	71.252690	-88.606820	495.035000	66.134000	-49.968030	478.568300	54.241450	-151.578540	634.649170	62.417540	-93.771920	613.043330	1457.066280	30.455590	476.269500	1569.862300	215.261150	460.637480	1567.949710	-126.129160	443.684050	1486.223020	390.284390	437.018010	1482.495360	-330.879390	437.437680	1464.757810	491.997100	444.447660	1470.946040	-422.943150	553.715090	1515.991580	739.185000	485.655880	1528.148930	739.243040	576.976500	1497.100460	-658.213990	505.217160	1506.249020	-671.241520	573.625370	49.126560	242.144730	579.487240	39.265140	129.509540	555.611690	36.940860	-170.763410	570.581970	42.943070	-58.343910	579.438480	1700.676030	107.328160	587.704960	1714.235470	-34.736970	607.626280	1806.207030	30.708260	
227	3.767000	623.103150	1070.191770	166.409700	613.850650	1062.633670	-86.311390	419.343960	1064.942990	37.156770	545.602360	762.025570	220.614900	610.422790	697.597050	159.992980	511.814180	666.919490	216.232740	552.495420	764.334350	-145.657260	613.901000	690.509160	-74.635890	530.363590	634.424680	-133.465960	490.849430	543.772950	200.355900	497.991880	526.909120	73.089060	486.129640	548.168270	-118.383440	516.011230	524.863950	-2.206860	482.646390	461.366610	211.318440	531.643430	389.842320	166.971880	469.524050	379.005220	220.325500	462.230900	451.230290	-136.837810	526.171940	371.204010	-99.727060	438.605680	382.907100	-142.222810	431.750460	104.351460	205.579450	451.184300	115.069980	122.100090	420.378300	103.852260	-125.523190	445.162110	109.325060	-37.050850	366.507260	75.364430	161.798780	509.872440	71.973390	129.387180	479.511810	64.718640	228.482910	647.391300	64.287310	166.544570	352.841670	71.383740	-88.716140	495.030030	66.145680	-49.969110	478.568790	54.237770	-151.580660	634.649170	62.417540	-93.771920	612.985720	1457.036380	30.466020	476.219360	1569.884770	215.288640	460.555850	1567.988040	-126.095050	443.643860	1486.176510	390.305240	437.012150	1482.554930	-330.919100	437.308590	1464.534420	491.964110	444.469670	1470.952880	-422.987030	553.409610	1515.690310	739.339720	485.404940	1527.851320	739.221680	576.827580	1497.104980	-658.169740	505.096710	1506.340210	-671.172420	573.642880	49.116570	242.143070	579.466800	39.260780	129.506180	555.617310	36.954620	-170.758060	571.114440	43.164280	-58.300800	579.297490	1700.735350	107.493420	587.635380	1714.279540	-34.771760	607.490360	1806.212770	30.832090	
228	3.783000	623.017030	1070.145510	166.405750	613.886540	1062.663330	-86.354230	419.383120	1064.939210	37.136950	545.563290	761.992920	220.619140	610.436040	697.583620	159.992580	511.905270	666.928650	216.227490	552.551760	764.349550	-145.703020	614.270080	690.557920	-74.811830	530.428530	634.382690	-133.432110	490.904910	543.757870	200.321380	498.111270	526.917360	73.064910	486.349610	548.138790	-118.409430	516.154170	524.856260	-2.246410	482.639590	461.371310	211.316310	531.651060	389.844360	166.975270	469.534210	379.000610	220.297100	462.344600	451.214540	-136.812320	526.174560	371.129730	-99.712440	438.693600	382.865170	-142.210600	431.740050	104.367680	205.591020	451.155670	115.054840	122.108260	420.346800	103.817580	-125.474960	445.127350	109.310560	-37.080280	366.648680	75.358700	161.720570	509.890720	71.987790	129.383410	479.540950	64.683030	228.469880	647.551570	64.309870	166.601440	352.860960	71.519650	-89.080670	495.035000	66.134000	-49.968030	478.572330	54.228590	-151.585820	634.649170	62.417540	-93.771920	612.920410	1457.015500	30.473460	476.142460	1569.912960	215.308530	460.487550	1568.009520	-126.069320	443.611820	1486.115480	390.294680	436.978390	1482.674800	-330.952640	437.116940	1464.374760	491.948060	444.492610	1470.959840	-423.030400	552.954830	1515.332760	739.549130	485.166110	1527.578980	739.191890	576.686580	1497.132570	-658.157960	504.940090	1506.427610	-671.111820	573.672550	49.099690	242.140240	579.418580	39.259620	129.500920	555.611570	36.944260	-170.762330	572.075990	43.577060	-58.135200	579.083440	1700.771850	107.613720	587.591370	1714.312500	-34.784240	607.395320	1806.211550	30.905360	
229	3.800000	622.902400	1070.099240	166.417630	613.959050	1062.709110	-86.418680	419.417820	1064.933960	37.088950	545.510800	761.970700	220.620130	610.442440	697.573910	159.990420	511.977480	666.935300	216.224140	552.603940	764.367680	-145.744490	614.567440	690.572510	-74.949750	530.492550	634.336730	-133.403120	490.979800	543.738950	200.279360	498.199770	526.912050	73.035350	486.545650	548.124940	-118.422840	516.284120	524.861150	-2.293950	482.638150	461.369960	211.318790	531.669980	389.848480	166.983830	469.543820	378.994350	220.275860	462.403440	451.209380	-136.810040	526.163450	371.080050	-99.697150	438.784880	382.844120	-142.200730	431.727870	104.386700	205.604550	451.113650	115.032620	122.120230	420.312810	103.780080	-125.422850	445.109620	109.304410	-37.098870	366.771120	75.397960	161.682300	509.890230	71.956800	129.380360	479.557710	64.663860	228.459180	647.764590	64.339740	166.676450	352.815370	71.592290	-89.594000	495.045810	66.108630	-49.965680	478.581940	54.211700	-151.595140	634.649170	62.417540	-93.771920	612.888850	1457.021730	30.471360	476.101010	1569.912960	215.295000	460.435640	1568.015870	-126.056850	443.572910	1486.019410	390.249360	436.911350	1482.822390	-330.972350	436.867000	1464.245120	491.964050	444.515590	1470.966550	-423.072910	552.408390	1514.972170	739.769650	484.960820	1527.356690	739.157230	576.544560	1497.175660	-658.181760	504.752410	1506.513060	-671.062320	573.706910	49.080140	242.136990	579.378540	39.248710	129.493650	555.591000	36.903650	-170.778790	573.035770	43.999270	-57.935760	578.862180	1700.781980	107.671490	587.577700	1714.329960	-34.785050	607.320010	1806.203740	30.930520	
